<svg xmlns="http://www.w3.org/2000/svg" xmlns:xlink="http://www.w3.org/1999/xlink" viewBox="0 0 95.4791902265662 95.481" height="95.481" width="95.4791902265662" data-background-color="#ffffff" preserveAspectRatio="xMidYMid meet" id="tight-bounds"><g><svg viewBox="0 0 95.4791902265662 95.481" height="95.481" width="95.4791902265662"><g><svg viewBox="0 0 95.4791902265662 95.481" height="95.481" width="95.4791902265662"><g><svg viewBox="0 0 95.4791902265662 95.481" height="95.481" width="95.4791902265662"><g><svg viewBox="0 0 95.4791902265662 95.481" height="95.481" width="95.4791902265662"><g><svg viewBox="0 0 95.4791902265662 95.481" height="95.481" width="95.4791902265662"><g><svg xmlns="http://www.w3.org/2000/svg" data-name="Layer 1" viewBox="0.00043458628351800144 0 127.99756622314453 127.99999237060547" x="0" y="0" height="95.481" width="95.4791902265662" class="icon-icon-0" data-fill-palette-color="accent" id="icon-0" fill="#000000"><path d="M14 29h-8a2.001 2.001 0 0 0-1.984 2.248l2 16A2 2 0 0 0 8 49h7V97.841c-0.065 0.006-0.135 0.011-0.2 0.018a2 2 0 0 0 0.4 3.981c12.941-1.299 31.747-0.984 47.832 7.91a1.998 1.998 0 0 0 1.936 0c16.086-8.894 34.893-9.209 47.832-7.91a2 2 0 0 0 0.4-3.981c-0.39-0.039-0.801-0.071-1.2-0.107V49h7a2 2 0 0 0 1.984-1.752l2-16A2.001 2.001 0 0 0 121 29h-8a2 2 0 0 0-1.985 1.752L110.234 37h-3.234V31a2 2 0 0 0-2-2H97a2 2 0 0 0-2 2v6H91.765l-0.781-6.248A2 2 0 0 0 89 29H81a2.001 2.001 0 0 0-1.984 2.248l2 16A2 2 0 0 0 83 49h7v4H80.108L66 30.426V21.682A27.844 27.844 0 0 0 70.151 22a17.069 17.069 0 0 0 7.131-1.354 7.4 7.4 0 0 1 3.029-0.551 14.054 14.054 0 0 1 3.554 0.479A4.014 4.014 0 0 0 89.005 17.134L89.981 7.123a4 4 0 0 0-2.756-4.196A22.483 22.483 0 0 0 80.859 2a16.404 16.404 0 0 0-6.897 1.4 6.508 6.508 0 0 1-2.719 0.519 12.281 12.281 0 0 1-3.817-0.656 4.029 4.029 0 0 0-1.412-0.255L66 3.009V2a2 2 0 0 0-4 0V30.426L47.892 53H37V49h7a2 2 0 0 0 1.984-1.752l2-16A2.001 2.001 0 0 0 46 29H38a2 2 0 0 0-1.984 1.752L35.235 37H32V31a2 2 0 0 0-2-2H22a2 2 0 0 0-2 2v6H16.766l-0.781-6.248A2 2 0 0 0 14 29ZM66 7a16.116 16.116 0 0 0 5.243 0.919A10.502 10.502 0 0 0 75.633 7.035 12.55 12.55 0 0 1 80.859 6a18.641 18.641 0 0 1 5.141 0.735l-0.976 10.011a17.822 17.822 0 0 0-4.713-0.651 11.316 11.316 0 0 0-4.7 0.916A13.425 13.425 0 0 1 70.151 18 23.22 23.22 0 0 1 66 17.625ZM28 63V97.298c-2.352-0.038-4.624 0.003-6.801 0.102L19 97V49H33V61H30A2 2 0 0 0 28 63Zm44 39.187A64.996 64.996 0 0 0 64 105.726a65.02 65.02 0 0 0-8-3.539V85.5H72ZM108 97l-1.856 0.371c-1.977-0.079-4.028-0.108-6.144-0.073V63a2 2 0 0 0-2-2H94V49h14ZM84.766 45l-1.501-12h3.969l0.781 6.248A2 2 0 0 0 90 41h7a2 2 0 0 0 2-2V33h4v6a2 2 0 0 0 2 2h7a1.999 1.999 0 0 0 1.984-1.752L114.765 33H118.734l-1.5 12Zm5.678 28a2 2 0 0 0 2-2V65h3.556V97.436a85.705 85.705 0 0 0-20 3.406V83.5a2 2 0 0 0-2-2H54a2 2 0 0 0-2 2v17.343a85.725 85.725 0 0 0-20-3.407V65h3.556v6a2 2 0 0 0 2 2h7.555a2 2 0 0 0 2-2V65h3.556v6a2 2 0 0 0 2 2h7.556a2 2 0 0 0 2-2V65h3.554v6a2 2 0 0 0 2 2h7.556a2 2 0 0 0 2-2V65h3.556v6a2 2 0 0 0 2 2Zm-41.444-16a2.001 2.001 0 0 0 1.696-0.94L64 34.773 77.304 56.06A2.001 2.001 0 0 0 79 57H90v4.053A1.998 1.998 0 0 0 88.444 63v6h-3.555V63a2 2 0 0 0-2-2h-7.556a2 2 0 0 0-2 2v6H69.777V63a2 2 0 0 0-2-2H60.223a2 2 0 0 0-2 2v6H54.667V63a2 2 0 0 0-2-2h-7.556a2 2 0 0 0-2 2v6h-3.555V63a2 2 0 0 0-2-2h-0.556V57ZM22 41a2 2 0 0 0 2-2V33h4v6a2 2 0 0 0 2 2h7a2 2 0 0 0 1.985-1.752L39.766 33H43.734l-1.5 12H9.766l-1.5-12h3.969l0.781 6.248A2 2 0 0 0 15 41Z" fill="#000000" data-fill-palette-color="accent"/><path d="M17.869 11.079L16.673 12.871a4 4 0 0 0 3.252 6.22l2.154 0.04 1.792 1.196a4 4 0 0 0 6.22-3.252l0.04-2.154 1.196-1.792a4 4 0 0 0-3.252-6.22L25.921 6.869 24.13 5.673a4 4 0 0 0-6.22 3.252Zm3.978 1.246L21.909 9 24.675 10.846l3.325 0.063L26.154 13.675 26.092 17l-2.767-1.846-3.325-0.063Z" fill="#000000" data-fill-palette-color="accent"/><path d="M107.944 5.455a4 4 0 0 0-4.074 0.218L102.079 6.869l-2.154 0.04a4 4 0 0 0-3.252 6.22l1.196 1.792 0.04 2.154a4 4 0 0 0 6.22 3.252l1.792-1.196 2.154-0.04a4 4 0 0 0 3.252-6.22l-1.196-1.792L110.09 8.925A4 4 0 0 0 107.944 5.455Zm-3.269 9.699L101.908 17l-0.062-3.325-1.846-2.766 3.325-0.063L106.091 9l0.062 3.325 1.847 2.766Z" fill="#000000" data-fill-palette-color="accent"/><path d="M0.072 120.012a1.998 1.998 0 0 0 2.458 1.399c0.34-0.095 34.275-9.128 60.454 6.312a1.998 1.998 0 0 0 2.032 0c26.18-15.438 60.115-6.406 60.454-6.312a2 2 0 0 0 1.06-3.857c-0.251-0.069-1.509-0.403-3.53-0.821V110.5a3.051 3.051 0 0 0-1.657-2.543c-10.162-1.77-35.866-4.603-57.343 6.77-21.477-11.371-47.182-8.54-57.343-6.77A3.051 3.051 0 0 0 5 110.5v6.233c-2.021 0.418-3.279 0.752-3.53 0.821A2 2 0 0 0 0.072 120.012Zm8.928-8.387c10.835-1.702 34.538-3.653 54.032 7.125a1.998 1.998 0 0 0 1.936 0c19.497-10.78 43.198-8.827 54.032-7.125v4.373c-11.717-1.906-34.979-3.603-55 7.693-20.021-11.296-43.283-9.599-55-7.693Z" fill="#000000" data-fill-palette-color="accent"/></svg></g></svg></g></svg></g></svg></g></svg></g><g/></svg></g><defs/></svg>